# AST/ASF file generated using VICON BodyLanguage
# -----------------------------------------------
:version 1.10
:name VICON
:units
  mass 1.0
  length 0.45
  angle deg
:documentation
   .ast/.asf automatically generated from VICON data using
   VICON BodyBuilder and BodyLanguage model FoxedUp or BRILLIANT.MOD
:root
   order TX TY TZ RX RY RZ
   axis XYZ
   position 0 0 0  
   orientation 0 0 0 
:bonedata
  begin
     id 1 
     name lhipjoint
     direction 0.612567 -0.751349 0.245431 
     length 2.42285 
     axis 0 0 0  XYZ
  end
  begin
     id 2 
     name lfemur
     direction 0.34202 -0.939693 0  
     length 7.11304  
     axis 0 0 20  XYZ
    dof rx ry rz
    limits (-160.0 20.0)
           (-70.0 70.0)
           (-60.0 70.0)
  end
  begin
     id 3 
     name ltibia
     direction 0.34202 -0.939693 0   
     length 7.84529   
     axis 0 0 20   XYZ
    dof rx
    limits (-10.0 170.0)
  end
  begin
     id 4 
     name lfoot
     direction 0.0779239 -0.214094 0.9737   
     length 1.97176   
     axis -90 7.62852e-016 20   XYZ
    dof rx rz
    limits (-45.0 90.0)
           (-70.0 20.0)
  end
  begin
     id 5 
     name ltoes
     direction 1.53565e-011 -4.21709e-011 1   
     length 0.993197   
     axis -90 7.62852e-016 20   XYZ
    dof rx
    limits (-90.0 20.0)
  end
  begin
     id 6 
     name rhipjoint
     direction -0.665722 -0.709315 0.231701   
     length 2.56642  
     axis 0 0 0  XYZ 
  end
  begin
     id 7 
     name rfemur
     direction -0.34202 -0.939693 0   
     length 7.32108   
     axis 0 0 -20   XYZ
    dof rx ry rz
    limits (-160.0 20.0)
           (-70.0 70.0)
           (-70.0 60.0)
  end
  begin
     id 8 
     name rtibia
     direction -0.34202 -0.939693 0   
     length 7.81254   
     axis 0 0 -20   XYZ
    dof rx
    limits (-10.0 170.0)
 end
 begin
     id 9 
     name rfoot
     direction -0.0832806 -0.228812 0.969902   
     length 2.08278  
     axis -90 -7.62852e-016 -20   XYZ
    dof rx rz
    limits (-45.0 90.0)
           (-20.0 70.0)
  end
  begin
     id 10 
     name rtoes
     direction -1.53589e-011 -4.22086e-011 1   
     length 1.04609   
     axis -90 -7.62852e-016 -20   XYZ
    dof rx
    limits (-90.0 20.0)
  end
  begin
     id 11 
     name lowerback
     direction -0.00506013 0.988403 -0.151766   
     length 2.01978   
     axis 0 0 0   XYZ
    dof rx ry rz
    limits (-20.0 45.0)
           (-30.0 30.0)
           (-30.0 30.0)
  end
  begin
     id 12 
     name upperback
     direction -0.00836389 0.99968 0.0238859   
     length 2.01276   
     axis 0 0 0   XYZ
    dof rx ry rz
    limits (-20.0 45.0)
           (-30.0 30.0)
           (-30.0 30.0)
  end
  begin
     id 13 
     name thorax
     direction -0.00684136 0.995386 0.0957043   
     length 2.07303   
     axis 0 0 0   XYZ
    dof rx ry rz
    limits (-20.0 45.0)
           (-30.0 30.0)
           (-30.0 30.0)
  end
  begin
     id 14 
     name lowerneck
     direction -0.0161045 0.999661 0.0204485   
     length 1.91243   
     axis 0 0 0   XYZ
    dof rx ry rz
    limits (-20.0 45.0)
           (-30.0 30.0)
           (-30.0 30.0)
  end
  begin
     id 15 
     name upperneck
     direction 0.0553583 0.990946 -0.122319   
     length 1.91574   
     axis 0 0 0   XYZ
    dof rx ry rz
    limits (-20.0 45.0)
           (-30.0 30.0)
           (-30.0 30.0)
  end
  begin
     id 16
     name head
     direction 0.0180273 0.998839 -0.0446756  
     length 1.92693  
     axis 0 0 0   XYZ
    dof rx ry rz
    limits (-20.0 45.0)
           (-30.0 30.0)
           (-30.0 30.0)
  end
  begin
     id 17 
     name lclavicle
     direction 0.945646 0.319323 -0.0615358  
     length 4.0076  
     axis 0 0 0   XYZ
    dof ry rz
    limits (-20.0 10.0)
           (0.0 20.0)
  end
  begin
     id 18 
     name lhumerus
     direction 1 -4.48967e-011 -2.79996e-027   
     length 5.64147   
     axis 180 -30 -90   XYZ
    dof rx ry rz
    limits (-60.0 90.0)
           (-90.0 90.0)
           (-90.0 90.0)
  end
  begin
     id 19
     name lradius
     direction 1 -4.48976e-011 -9.5122e-027   
     length 2.86444   
     axis 180 -30 -90   XYZ
    dof rx
    limits (-10.0 170.0)
  end
  begin
     id 20
     name lwrist
     direction 1 -4.48983e-011 -1.24047e-026   
     length 1.43222   
     axis 9.05591e-015 90 90   XYZ
    dof ry
    limits (-180.0 0.0)
 end
  begin
     id 21 
     name lhand
     direction 1 -4.4892e-011 -2.48094e-026   
     length 0.722123   
     axis 1.58305e-014 90 90   XYZ
    dof rx rz
    limits (-90.0 90.0)
           (-45.0 45.0)
  end
  begin
     id 22 
     name lfingers
     direction 1 -4.48895e-011 -4.96187e-026   
     length 0.582194   
     axis 3.1661e-014 90 90   XYZ
    dof rx
    limits (0.0 90.0)
  end
  begin
     id 23
     name lthumb
     direction 0.707107 -6.34961e-011 0.707107   
     length 0.835918   
     axis -90 45 2.85299e-015   XYZ
    dof rx rz
    limits (-45.0 45.0)
           (-45.0 45.0)
  end
  begin
     id 24 
     name rclavicle
     direction -0.932635 0.324218 -0.15835   
     length 3.65819  
     axis 0 0 0   XYZ 
    dof ry rz
    limits (-10.0 20.0)
           (-20.0 0.0)
  end
  begin
     id 25 
     name rhumerus
     direction -1 -4.48965e-011 -4.02296e-027  
     length 5.44729   
     axis 180 30 90   XYZ
    dof rx ry rz
    limits (-90.0 60.0)
           (-90.0 90.0)
           (-90.0 90.0)
  end
  begin
     id 26 
     name rradius
     direction -1 -4.48957e-011 -8.81087e-027   
     length 3.08821   
     axis 180 30 90   XYZ
    dof rx
    limits (-10.0 170.0)
  end
  begin
     id 27 
     name rwrist
     direction -1 -4.49015e-011 -1.24047e-026   
     length 1.5441   
     axis 9.05591e-015 -90 -90   XYZ
    dof ry
    limits (-180.0 0.0)
  end
  begin
     id 28
     name rhand
     direction -1 -4.4891e-011 -2.48094e-026   
     length 0.821049   
     axis 1.58305e-014 -90 -90   XYZ
    dof rx rz
    limits (-90.0 90.0)
           (-45.0 45.0)
  end
  begin
     id 29
     name rfingers
     direction -1 -4.48985e-011 -4.96187e-026   
     length 0.661951   
     axis 3.1661e-014 -90 -90   XYZ
    dof rx
    limits (0.0 90.0)
  end
  begin
     id 30
     name rthumb
     direction -0.707107 -6.34906e-011 0.707107   
     length 0.950433   
     axis -90 -45 -2.85299e-015   XYZ
    dof rx rz
    limits (-45.0 45.0)
           (-45.0 45.0)
  end
:hierarchy
  begin
    root lhipjoint rhipjoint lowerback
    lhipjoint lfemur
    lfemur ltibia
    ltibia lfoot
    lfoot ltoes
    rhipjoint rfemur
    rfemur rtibia
    rtibia rfoot
    rfoot rtoes
    lowerback upperback
    upperback thorax
    thorax lowerneck lclavicle rclavicle
    lowerneck upperneck
    upperneck head
    lclavicle lhumerus
    lhumerus lradius
    lradius lwrist
    lwrist lhand lthumb
    lhand lfingers
    rclavicle rhumerus
    rhumerus rradius
    rradius rwrist
    rwrist rhand rthumb
    rhand rfingers
  end

#!OML:ASF F:\VICON\USERDATA\INSTALL\rory3\rory3.ASF
:FULLY-SPECIFIED
:DEGREES
666
root 3.1449 18.1472 -0.17267 -24.905 78.603 -31.3027
lowerback 4.89918 0.408283 5.75699
upperback -4.59755 1.15063 0.928128
thorax -7.50363 0.306758 -2.38377
lowerneck 7.45833 -1.11863 -4.58309
upperneck -5.73423 -1.35541 8.07728
head -3.13964 -0.864431 3.61498
rclavicle 2.08848e-014 1.09332e-014
rhumerus -18.745 15.4234 -90.4797
rradius 129.549
rwrist 13.8445
rhand 30.869 0.320026
rfingers 7.12502
rthumb 54.4865 -18.1837
lclavicle 2.08848e-014 1.09332e-014
lhumerus 0.44158 -41.9079 90.5287
lradius 127.828
lwrist 26.1289
lhand -17.1311 25.6509
lfingers 7.12502
lthumb 9.10882 55.4342
rfemur -9.84827 -2.05394 24.3531
rtibia 15.5353
rfoot -2.23984 3.82714
rtoes -16.2709
lfemur 1.17594 8.72677 -14.0235
ltibia 3.95142
lfoot -13.0635 5.16341
ltoes -12.6318
667
root 3.14581 18.1485 -0.172321 -24.9961 78.6309 -31.4406
lowerback 4.84619 0.398208 5.76148
upperback -4.60547 1.13499 0.935418
thorax -7.48273 0.299767 -2.37614
lowerneck 7.36157 -1.10846 -4.54995
upperneck -5.62278 -1.34537 8.03122
head -3.08313 -0.856038 3.58637
rclavicle 1.87044e-014 -5.56597e-015
rhumerus -18.7892 15.4615 -90.5008
rradius 129.563
rwrist 13.7672
rhand 30.8475 0.30524
rfingers 7.12502
rthumb 54.4672 -18.2119
lclavicle 1.87044e-014 -5.56597e-015
lhumerus 0.414453 -41.9021 90.5562
lradius 127.809
lwrist 26.1407
lhand -17.0985 25.6652
lfingers 7.12502
lthumb 9.14028 55.4471
rfemur -9.88323 -2.10594 24.3713
rtibia 15.4992
rfoot -2.18149 3.79262
rtoes -16.3277
lfemur 1.06518 8.68947 -14.0268
ltibia 4.05318
lfoot -13.1308 5.19224
ltoes -12.9582
668
root 3.1463 18.1487 -0.171855 -24.9019 78.6536 -31.3789
lowerback 4.82944 0.376094 5.70016
upperback -4.6303 1.10212 0.95469
thorax -7.5033 0.286813 -2.31786
lowerneck 7.34205 -1.07437 -4.54116
upperneck -5.55275 -1.30481 7.99669
head -3.05818 -0.834123 3.56833
rclavicle -5.14977e-015 1.41137e-014
rhumerus -18.8404 15.5405 -90.5209
rradius 129.578
rwrist 13.6689
rhand 30.9005 0.290265
rfingers 7.12502
rthumb 54.5147 -18.1937
lclavicle -5.14977e-015 1.41137e-014
lhumerus 0.358044 -41.8333 90.6136
lradius 127.764
lwrist 26.1163
lhand -17.0364 25.6152
lfingers 7.12502
lthumb 9.20018 55.3945
rfemur -9.89458 -2.10845 24.3496
rtibia 15.4602
rfoot -2.15246 3.78208
rtoes -16.5318
lfemur 0.980003 8.67211 -14.0607
ltibia 4.14409
lfoot -13.2012 5.13477
ltoes -12.4968
669
root 3.14755 18.1481 -0.171058 -25.1349 78.6319 -31.6135
lowerback 4.84211 0.366106 5.7504
upperback -4.6421 1.0954 0.96279
thorax -7.52387 0.280445 -2.33692
lowerneck 7.33966 -1.04939 -4.53248
upperneck -5.50162 -1.27135 8.01676
head -3.04275 -0.817874 3.5709
rclavicle -2.1475e-014 7.7526e-015
rhumerus -18.8624 15.5649 -90.5635
rradius 129.574
rwrist 13.5675
rhand 31.0133 0.184375
rfingers 7.12502
rthumb 54.6156 -18.2288
lclavicle -2.1475e-014 7.7526e-015
lhumerus 0.306401 -41.8498 90.6399
lradius 127.756
lwrist 26.1343
lhand -17.0751 25.5447
lfingers 7.12502
lthumb 9.1629 55.3256
rfemur -9.83525 -2.07205 24.4001
rtibia 15.3917
rfoot -2.18499 3.75316
rtoes -16.2947
lfemur 0.894822 8.66724 -14.0165
ltibia 4.31701
lfoot -13.2799 5.09079
ltoes -12.3225
670
root 3.14811 18.1466 -0.170199 -25.3442 78.6221 -31.8116
lowerback 4.83876 0.352119 5.76528
upperback -4.62929 1.07897 0.988833
thorax -7.50988 0.273055 -2.3159
lowerneck 7.29425 -1.02005 -4.53918
upperneck -5.42708 -1.23711 7.99751
head -3.01093 -0.798735 3.56088
rclavicle -7.45443e-015 8.34896e-015
rhumerus -18.8639 15.6512 -90.5895
rradius 129.564
rwrist 13.569
rhand 31.1239 0.177456
rfingers 7.12502
rthumb 54.7144 -18.1658
lclavicle -7.45443e-015 8.34896e-015
lhumerus 0.296799 -41.8517 90.633
lradius 127.743
lwrist 26.1618
lhand -17.1269 25.4989
lfingers 7.12502
lthumb 9.11285 55.2821
rfemur -9.81684 -2.07926 24.4471
rtibia 15.3859
rfoot -2.17294 3.76427
rtoes -15.9197
lfemur 0.918318 8.65183 -13.9687
ltibia 4.31082
lfoot -13.2568 5.13459
ltoes -12.518
671
root 3.14923 18.1464 -0.169621 -25.4426 78.5977 -31.9276
lowerback 4.79142 0.366835 5.80105
upperback -4.61745 1.09747 0.986069
thorax -7.46767 0.281561 -2.34012
lowerneck 7.25678 -1.02415 -4.48655
upperneck -5.3811 -1.24152 7.95803
head -2.98736 -0.799682 3.53483
rclavicle 2.25496e-015 -1.59028e-015
rhumerus -18.8455 15.6601 -90.6003
rradius 129.529
rwrist 13.6864
rhand 31.1288 0.259557
rfingers 7.12502
rthumb 54.7188 -18.0806
lclavicle 2.25496e-015 -1.59028e-015
lhumerus 0.322702 -41.9252 90.5868
lradius 127.716
lwrist 26.2134
lhand -17.1841 25.4537
lfingers 7.12502
lthumb 9.0577 55.2392
rfemur -9.84706 -2.06983 24.488
rtibia 15.3849
rfoot -2.1564 3.77753
rtoes -16.1515
lfemur 0.898234 8.6596 -13.9393
ltibia 4.33526
lfoot -13.2702 5.15364
ltoes -12.5795
672
root 3.15092 18.1491 -0.168623 -25.063 78.6012 -31.5595
lowerback 4.77986 0.38182 5.73541
upperback -4.6282 1.10947 0.957162
thorax -7.47133 0.289678 -2.33504
lowerneck 7.20507 -1.0231 -4.47386
upperneck -5.2802 -1.24341 7.95145
head -2.94276 -0.798937 3.52633
rclavicle -3.14949e-015 -1.59028e-015
rhumerus -18.8705 15.7037 -90.6139
rradius 129.486
rwrist 13.8701
rhand 30.9358 0.30788
rfingers 7.12502
rthumb 54.5463 -18.154
lclavicle -3.14949e-015 -1.59028e-015
lhumerus 0.281022 -41.9562 90.5907
lradius 127.67
lwrist 26.2136
lhand -17.1903 25.4712
lfingers 7.12502
lthumb 9.05173 55.257
rfemur -9.903 -2.11349 24.422
rtibia 15.451
rfoot -2.15187 3.85293
rtoes -17.143
lfemur 0.974976 8.68188 -14
ltibia 4.15809
lfoot -13.1776 5.20153
ltoes -12.6196
673
root 3.15015 18.15 -0.167437 -24.8901 78.5962 -31.411
lowerback 4.79673 0.386807 5.69855
upperback -4.64235 1.11475 0.952982
thorax -7.49616 0.293212 -2.31973
lowerneck 7.15765 -1.01183 -4.48625
upperneck -5.21278 -1.23076 7.9672
head -2.91169 -0.791479 3.53096
rclavicle 3.05818e-014 1.68967e-014
rhumerus -18.901 15.778 -90.6049
rradius 129.449
rwrist 14.0451
rhand 30.6891 0.343911
rfingers 7.12502
rthumb 54.3254 -18.2717
lclavicle 3.05818e-014 1.68967e-014
lhumerus 0.243598 -41.9644 90.6146
lradius 127.695
lwrist 26.2339
lhand -17.2065 25.5222
lfingers 7.12502
lthumb 9.03605 55.3087
rfemur -10.0049 -2.09828 24.4039
rtibia 15.5997
rfoot -2.22455 3.88317
rtoes -17.3421
lfemur 1.21085 8.69285 -13.9709
ltibia 3.65566
lfoot -12.9867 5.2499
ltoes -12.5559
674
root 3.15031 18.1491 -0.16852 -24.2924 78.6538 -30.8075
lowerback 4.7957 0.37427 5.56238
upperback -4.6452 1.08394 0.923822
thorax -7.5014 0.28402 -2.2709
lowerneck 7.15854 -0.994787 -4.46977
upperneck -5.18002 -1.21031 7.93736
head -2.902 -0.780505 3.51556
rclavicle 9.87711e-016 -7.55382e-015
rhumerus -18.9147 15.8692 -90.6237
rradius 129.429
rwrist 14.0848
rhand 30.5673 0.338458
rfingers 7.12502
rthumb 54.2162 -18.3523
lclavicle 9.87711e-016 -7.55382e-015
lhumerus 0.201611 -41.9037 90.6271
lradius 127.727
lwrist 26.2083
lhand -17.1474 25.4832
lfingers 7.12502
lthumb 9.09308 55.2671
rfemur -10.1016 -2.06655 24.2457
rtibia 15.7649
rfoot -2.30277 3.9101
rtoes -17.0518
lfemur 1.56893 8.67909 -14.0616
ltibia 3.00205
lfoot -12.7352 5.31954
ltoes -12.6234
675
root 3.1516 18.149 -0.16884 -23.7307 78.6997 -30.2506
lowerback 4.75843 0.369705 5.44198
upperback -4.63053 1.06161 0.893772
thorax -7.46573 0.279462 -2.23215
lowerneck 7.11907 -0.994674 -4.43337
upperneck -5.1602 -1.21084 7.87946
head -2.88729 -0.778844 3.48671
rclavicle 1.90088e-014 -1.31198e-014
rhumerus -18.89 15.9196 -90.6255
rradius 129.448
rwrist 14.0684
rhand 30.4773 0.308454
rfingers 7.12502
rthumb 54.1356 -18.4375
lclavicle 1.90088e-014 -1.31198e-014
lhumerus 0.171176 -41.8855 90.6142
lradius 127.737
lwrist 26.184
lhand -17.1308 25.5171
lfingers 7.12502
lthumb 9.10913 55.3004
rfemur -10.172 -2.0917 24.1113
rtibia 15.8543
rfoot -2.31134 3.96105
rtoes -17.1013
lfemur 1.79863 8.67303 -14.16
ltibia 2.57019
lfoot -12.5526 5.34043
ltoes -12.198
